{"accessors" : [{"bufferView" : 0, "byteOffset" : 0, "componentType" : 5123, "count" : 1776, "type" : "SCALAR", "max" : [1459], "min" : [0]}, {"bufferView" : 1, "byteOffset" : 0, "componentType" : 5126, "count" : 1460, "type" : "VEC3", "max" : [0.219474196434021, 3.1001760959625244, 1.0784879922866821], "min" : [-0.21947260200977325, -3.5214829444885254, -1.0784879922866821], "name" : "POSITION"}], "asset" : {"generator" : "Aspose.3D 22.7", "version" : "2.0"}, "buffers" : [{"uri" : "data:application/octet-stream;base64,", "byteLength" : 24872}], "bufferViews" : [{"buffer" : 0, "byteOffset" : 0, "byteLength" : 3552, "target" : 34963}, {"buffer" : 0, "byteOffset" : 3556, "byteLength" : 21312, "byteStride" : 12, "target" : 34962}], "meshes" : [{"primitives" : [{"attributes" : {"POSITION" : 1}, "indices" : 0, "mode" : 4}], "name" : ""}], "nodes" : [{"mesh" : 0, "name" : ""}], "scene" : 0, "scenes" : [{"nodes" : [0]}]}